%TF.GenerationSoftware,KiCad,Pcbnew,7.0.10*%
%TF.CreationDate,2024-02-19T04:42:38+05:30*%
%TF.ProjectId,breakout,62726561-6b6f-4757-942e-6b696361645f,rev?*%
%TF.SameCoordinates,Original*%
%TF.FileFunction,Copper,L1,Top*%
%TF.FilePolarity,Positive*%
%FSLAX46Y46*%
G04 Gerber Fmt 4.6, Leading zero omitted, Abs format (unit mm)*
G04 Created by KiCad (PCBNEW 7.0.10) date 2024-02-19 04:42:38*
%MOMM*%
%LPD*%
G01*
G04 APERTURE LIST*
G04 Aperture macros list*
%AMRoundRect*
0 Rectangle with rounded corners*
0 $1 Rounding radius*
0 $2 $3 $4 $5 $6 $7 $8 $9 X,Y pos of 4 corners*
0 Add a 4 corners polygon primitive as box body*
4,1,4,$2,$3,$4,$5,$6,$7,$8,$9,$2,$3,0*
0 Add four circle primitives for the rounded corners*
1,1,$1+$1,$2,$3*
1,1,$1+$1,$4,$5*
1,1,$1+$1,$6,$7*
1,1,$1+$1,$8,$9*
0 Add four rect primitives between the rounded corners*
20,1,$1+$1,$2,$3,$4,$5,0*
20,1,$1+$1,$4,$5,$6,$7,0*
20,1,$1+$1,$6,$7,$8,$9,0*
20,1,$1+$1,$8,$9,$2,$3,0*%
G04 Aperture macros list end*
%TA.AperFunction,SMDPad,CuDef*%
%ADD10RoundRect,0.300000X-0.500000X-0.300000X0.500000X-0.300000X0.500000X0.300000X-0.500000X0.300000X0*%
%TD*%
%TA.AperFunction,SMDPad,CuDef*%
%ADD11RoundRect,0.300000X0.300000X-0.500000X0.300000X0.500000X-0.300000X0.500000X-0.300000X-0.500000X0*%
%TD*%
%TA.AperFunction,SMDPad,CuDef*%
%ADD12RoundRect,0.250000X-0.250000X-0.250000X0.250000X-0.250000X0.250000X0.250000X-0.250000X0.250000X0*%
%TD*%
%TA.AperFunction,ComponentPad*%
%ADD13R,1.700000X1.700000*%
%TD*%
%TA.AperFunction,ComponentPad*%
%ADD14O,1.700000X1.700000*%
%TD*%
%TA.AperFunction,SMDPad,CuDef*%
%ADD15RoundRect,0.250000X-0.250000X0.250000X-0.250000X-0.250000X0.250000X-0.250000X0.250000X0.250000X0*%
%TD*%
%TA.AperFunction,Conductor*%
%ADD16C,0.250000*%
%TD*%
%TA.AperFunction,Conductor*%
%ADD17C,0.750000*%
%TD*%
G04 APERTURE END LIST*
D10*
%TO.P,U1,25,S9*%
%TO.N,Net-(J16-Pin_1)*%
X153500000Y-115000000D03*
D11*
%TO.P,U1,24,G*%
%TO.N,unconnected-(U1-G-Pad24)*%
X132000000Y-122500000D03*
D10*
%TO.P,U1,23,T6*%
%TO.N,Net-(J30-Pin_2)*%
X153500000Y-97000000D03*
%TO.P,U1,22,R6*%
%TO.N,Net-(J30-Pin_3)*%
X153500000Y-99000000D03*
%TO.P,U1,21,S10*%
%TO.N,Net-(J15-Pin_1)*%
X153500000Y-117000000D03*
%TO.P,U1,20,Rssi*%
%TO.N,unconnected-(U1-Rssi-Pad20)*%
X153500000Y-119000000D03*
D11*
%TO.P,U1,19,R2*%
%TO.N,Net-(J35-Pin_1)*%
X150000000Y-122500000D03*
%TO.P,U1,18,T2*%
%TO.N,Net-(J34-Pin_1)*%
X148000000Y-122500000D03*
%TO.P,U1,17,Sbs*%
%TO.N,Net-(J14-Pin_1)*%
X146000000Y-122500000D03*
%TO.P,U1,16,4v5*%
%TO.N,Net-(J14-Pin_2)*%
X144000000Y-122500000D03*
%TO.P,U1,15,G*%
%TO.N,Net-(J10-Pin_1)*%
X142000000Y-122500000D03*
%TO.P,U1,14,BZ-*%
%TO.N,Net-(J8-Pin_3)*%
X136000000Y-122500000D03*
%TO.P,U1,13,4v5*%
%TO.N,Net-(J3-Pin_1)*%
X134000000Y-122500000D03*
%TO.P,U1,12,T5*%
%TO.N,Net-(J2-Pin_1)*%
X130000000Y-122500000D03*
%TO.P,U1,11,R5*%
%TO.N,Net-(J1-Pin_1)*%
X128000000Y-122500000D03*
D10*
%TO.P,U1,10,SDA*%
%TO.N,Net-(J40-Pin_1)*%
X124500000Y-119000000D03*
%TO.P,U1,9,SCl*%
%TO.N,Net-(J41-Pin_1)*%
X124500000Y-117000000D03*
%TO.P,U1,8,T3*%
%TO.N,Net-(J23-Pin_2)*%
X124500000Y-99000000D03*
%TO.P,U1,7,R3*%
%TO.N,Net-(J23-Pin_3)*%
X124500000Y-97000000D03*
D11*
%TO.P,U1,6,G*%
%TO.N,/gnd*%
X128000000Y-93500000D03*
%TO.P,U1,5,5V*%
%TO.N,Net-(J21-Pin_2)*%
X130000000Y-93500000D03*
%TO.P,U1,4,Cam*%
%TO.N,Net-(J21-Pin_3)*%
X132000000Y-93500000D03*
%TO.P,U1,3,VTx*%
%TO.N,Net-(J19-Pin_1)*%
X146000000Y-93500000D03*
%TO.P,U1,2,10V*%
%TO.N,Net-(J19-Pin_2)*%
X148000000Y-93500000D03*
%TO.P,U1,1,G*%
%TO.N,/gnd*%
X150000000Y-93500000D03*
%TD*%
D12*
%TO.P,J49,1,Pin_1*%
%TO.N,Net-(J49-Pin_1)*%
X137795000Y-64770000D03*
%TD*%
%TO.P,J42,1,Pin_1*%
%TO.N,Net-(J21-Pin_2)*%
X135255000Y-62230000D03*
%TD*%
%TO.P,J67,1,Pin_1*%
%TO.N,Net-(J17-Pin_2)*%
X136525000Y-62230000D03*
%TD*%
%TO.P,J68,1,Pin_1*%
%TO.N,Net-(J49-Pin_1)*%
X137795000Y-62230000D03*
%TD*%
D13*
%TO.P,J17,1,Pin_1*%
%TO.N,Net-(J17-Pin_1)*%
X153310000Y-60325000D03*
D14*
%TO.P,J17,2,Pin_2*%
%TO.N,Net-(J17-Pin_2)*%
X153310000Y-62865000D03*
%TD*%
D13*
%TO.P,J18,1,Pin_1*%
%TO.N,/gnd*%
X146050000Y-60325000D03*
D14*
%TO.P,J18,2,Pin_2*%
%TO.N,Net-(J18-Pin_2)*%
X146050000Y-62865000D03*
%TD*%
D15*
%TO.P,J59,1,Pin_1*%
%TO.N,Net-(J26-Pin_3)*%
X126365000Y-59323333D03*
%TD*%
D13*
%TO.P,J27,1,Pin_1*%
%TO.N,/gnd*%
X131435000Y-64933333D03*
D14*
%TO.P,J27,2,Pin_2*%
%TO.N,Net-(J26-Pin_2)*%
X128895000Y-64933333D03*
%TO.P,J27,3,Pin_3*%
%TO.N,Net-(J26-Pin_3)*%
X126355000Y-64933333D03*
%TO.P,J27,4,Pin_4*%
%TO.N,Net-(J21-Pin_2)*%
X123815000Y-64933333D03*
%TD*%
D15*
%TO.P,J58,1,Pin_1*%
%TO.N,Net-(J26-Pin_2)*%
X128905000Y-59323333D03*
%TD*%
D13*
%TO.P,J26,1,Pin_1*%
%TO.N,/gnd*%
X131435000Y-62393333D03*
D14*
%TO.P,J26,2,Pin_2*%
%TO.N,Net-(J26-Pin_2)*%
X128895000Y-62393333D03*
%TO.P,J26,3,Pin_3*%
%TO.N,Net-(J26-Pin_3)*%
X126355000Y-62393333D03*
%TO.P,J26,4,Pin_4*%
%TO.N,Net-(J21-Pin_2)*%
X123815000Y-62393333D03*
%TD*%
D12*
%TO.P,J64,1,Pin_1*%
%TO.N,Net-(J4-Pin_3)*%
X124460000Y-130175000D03*
%TD*%
%TO.P,J39,1,Pin_1*%
%TO.N,Net-(J10-Pin_1)*%
X140970000Y-138430000D03*
%TD*%
D13*
%TO.P,J32,1,Pin_1*%
%TO.N,Net-(J17-Pin_2)*%
X146050000Y-69600000D03*
D14*
%TO.P,J32,2,Pin_2*%
%TO.N,Net-(J18-Pin_2)*%
X148590000Y-69600000D03*
%TO.P,J32,3,Pin_3*%
%TO.N,Net-(J17-Pin_1)*%
X151130000Y-69600000D03*
%TO.P,J32,4,Pin_4*%
%TO.N,/gnd*%
X153670000Y-69600000D03*
%TD*%
D12*
%TO.P,J40,1,Pin_1*%
%TO.N,Net-(J40-Pin_1)*%
X122500000Y-119000000D03*
%TD*%
%TO.P,J16,1,Pin_1*%
%TO.N,Net-(J16-Pin_1)*%
X155500000Y-115000000D03*
%TD*%
D14*
%TO.P,J20,3,Pin_3*%
%TO.N,/gnd*%
X152415000Y-89535000D03*
%TO.P,J20,2,Pin_2*%
%TO.N,Net-(J19-Pin_2)*%
X149875000Y-89535000D03*
D13*
%TO.P,J20,1,Pin_1*%
%TO.N,Net-(J19-Pin_1)*%
X147335000Y-89535000D03*
%TD*%
D14*
%TO.P,J8,3,Pin_3*%
%TO.N,Net-(J8-Pin_3)*%
X134620000Y-133350000D03*
%TO.P,J8,2,Pin_2*%
%TO.N,Net-(J4-Pin_2)*%
X134620000Y-135890000D03*
D13*
%TO.P,J8,1,Pin_1*%
%TO.N,Net-(J10-Pin_1)*%
X134620000Y-138430000D03*
%TD*%
D12*
%TO.P,J15,1,Pin_1*%
%TO.N,Net-(J15-Pin_1)*%
X155500000Y-119000000D03*
%TD*%
D14*
%TO.P,J5,3,Pin_3*%
%TO.N,Net-(J5-Pin_3)*%
X127000000Y-133350000D03*
%TO.P,J5,2,Pin_2*%
%TO.N,Net-(J4-Pin_2)*%
X127000000Y-135890000D03*
D13*
%TO.P,J5,1,Pin_1*%
%TO.N,Net-(J10-Pin_1)*%
X127000000Y-138430000D03*
%TD*%
D12*
%TO.P,J60,1,Pin_1*%
%TO.N,Net-(J12-Pin_3)*%
X151765000Y-130175000D03*
%TD*%
D14*
%TO.P,J10,3,Pin_3*%
%TO.N,Net-(J10-Pin_3)*%
X146685000Y-133350000D03*
%TO.P,J10,2,Pin_2*%
%TO.N,Net-(J10-Pin_2)*%
X146685000Y-135890000D03*
D13*
%TO.P,J10,1,Pin_1*%
%TO.N,Net-(J10-Pin_1)*%
X146685000Y-138430000D03*
%TD*%
D12*
%TO.P,J54,1,Pin_1*%
%TO.N,Net-(J17-Pin_1)*%
X140335000Y-72390000D03*
%TD*%
D14*
%TO.P,J4,3,Pin_3*%
%TO.N,Net-(J4-Pin_3)*%
X124460000Y-133350000D03*
%TO.P,J4,2,Pin_2*%
%TO.N,Net-(J4-Pin_2)*%
X124460000Y-135890000D03*
D13*
%TO.P,J4,1,Pin_1*%
%TO.N,Net-(J10-Pin_1)*%
X124460000Y-138430000D03*
%TD*%
D12*
%TO.P,J35,1,Pin_1*%
%TO.N,Net-(J35-Pin_1)*%
X150000000Y-126000000D03*
%TD*%
%TO.P,J1,1,Pin_1*%
%TO.N,Net-(J1-Pin_1)*%
X128000000Y-126000000D03*
%TD*%
%TO.P,J43,1,Pin_1*%
%TO.N,Net-(J36-Pin_1)*%
X138430000Y-133350000D03*
%TD*%
%TO.P,J53,1,Pin_1*%
%TO.N,Net-(J18-Pin_2)*%
X140335000Y-70485000D03*
%TD*%
%TO.P,J50,1,Pin_1*%
%TO.N,Net-(J50-Pin_1)*%
X144145000Y-130175000D03*
%TD*%
D14*
%TO.P,J7,3,Pin_3*%
%TO.N,Net-(J33-Pin_1)*%
X132080000Y-133350000D03*
%TO.P,J7,2,Pin_2*%
%TO.N,Net-(J4-Pin_2)*%
X132080000Y-135890000D03*
D13*
%TO.P,J7,1,Pin_1*%
%TO.N,Net-(J10-Pin_1)*%
X132080000Y-138430000D03*
%TD*%
D12*
%TO.P,J37,1,Pin_1*%
%TO.N,Net-(J10-Pin_2)*%
X140970000Y-131000000D03*
%TD*%
%TO.P,J63,1,Pin_1*%
%TO.N,Net-(J5-Pin_3)*%
X127000000Y-130175000D03*
%TD*%
%TO.P,J52,1,Pin_1*%
%TO.N,Net-(J11-Pin_3)*%
X149225000Y-130175000D03*
%TD*%
%TO.P,J47,1,Pin_1*%
%TO.N,Net-(J24-Pin_3)*%
X135890000Y-76835000D03*
%TD*%
D14*
%TO.P,J31,4,Pin_4*%
%TO.N,/gnd*%
X153670000Y-75950000D03*
%TO.P,J31,3,Pin_3*%
%TO.N,Net-(J31-Pin_3)*%
X151130000Y-75950000D03*
%TO.P,J31,2,Pin_2*%
%TO.N,Net-(J31-Pin_2)*%
X148590000Y-75950000D03*
D13*
%TO.P,J31,1,Pin_1*%
%TO.N,Net-(J24-Pin_1)*%
X146050000Y-75950000D03*
%TD*%
D12*
%TO.P,J57,1,Pin_1*%
%TO.N,Net-(J23-Pin_1)*%
X137795000Y-80645000D03*
%TD*%
%TO.P,J62,1,Pin_1*%
%TO.N,Net-(J6-Pin_3)*%
X129540000Y-130175000D03*
%TD*%
D14*
%TO.P,J14,3,Pin_3*%
%TO.N,Net-(J10-Pin_1)*%
X139685000Y-127000000D03*
%TO.P,J14,2,Pin_2*%
%TO.N,Net-(J14-Pin_2)*%
X142225000Y-127000000D03*
D13*
%TO.P,J14,1,Pin_1*%
%TO.N,Net-(J14-Pin_1)*%
X144765000Y-127000000D03*
%TD*%
D12*
%TO.P,J65,1,Pin_1*%
%TO.N,Net-(J4-Pin_2)*%
X138430000Y-134620000D03*
%TD*%
%TO.P,J55,1,Pin_1*%
%TO.N,Net-(J31-Pin_2)*%
X140335000Y-76835000D03*
%TD*%
%TO.P,J51,1,Pin_1*%
%TO.N,Net-(J10-Pin_3)*%
X146685000Y-130175000D03*
%TD*%
%TO.P,J45,1,Pin_1*%
%TO.N,Net-(J25-Pin_3)*%
X135890000Y-70485000D03*
%TD*%
D14*
%TO.P,J24,4,Pin_4*%
%TO.N,/gnd*%
X131455000Y-75950000D03*
%TO.P,J24,3,Pin_3*%
%TO.N,Net-(J24-Pin_3)*%
X128915000Y-75950000D03*
%TO.P,J24,2,Pin_2*%
%TO.N,Net-(J24-Pin_2)*%
X126375000Y-75950000D03*
D13*
%TO.P,J24,1,Pin_1*%
%TO.N,Net-(J24-Pin_1)*%
X123835000Y-75950000D03*
%TD*%
D12*
%TO.P,J61,1,Pin_1*%
%TO.N,Net-(J13-Pin_3)*%
X154305000Y-130175000D03*
%TD*%
D14*
%TO.P,J11,3,Pin_3*%
%TO.N,Net-(J11-Pin_3)*%
X149225000Y-133350000D03*
%TO.P,J11,2,Pin_2*%
%TO.N,Net-(J10-Pin_2)*%
X149225000Y-135890000D03*
D13*
%TO.P,J11,1,Pin_1*%
%TO.N,Net-(J10-Pin_1)*%
X149225000Y-138430000D03*
%TD*%
D12*
%TO.P,J41,1,Pin_1*%
%TO.N,Net-(J41-Pin_1)*%
X122500000Y-117000000D03*
%TD*%
%TO.P,J36,1,Pin_1*%
%TO.N,Net-(J36-Pin_1)*%
X138430000Y-131000000D03*
%TD*%
D14*
%TO.P,J25,4,Pin_4*%
%TO.N,/gnd*%
X131445000Y-69600000D03*
%TO.P,J25,3,Pin_3*%
%TO.N,Net-(J25-Pin_3)*%
X128905000Y-69600000D03*
%TO.P,J25,2,Pin_2*%
%TO.N,Net-(J25-Pin_2)*%
X126365000Y-69600000D03*
D13*
%TO.P,J25,1,Pin_1*%
%TO.N,Net-(J21-Pin_2)*%
X123825000Y-69600000D03*
%TD*%
D12*
%TO.P,J2,1,Pin_1*%
%TO.N,Net-(J2-Pin_1)*%
X130000000Y-126000000D03*
%TD*%
%TO.P,J56,1,Pin_1*%
%TO.N,Net-(J31-Pin_3)*%
X140335000Y-78740000D03*
%TD*%
D14*
%TO.P,J13,3,Pin_3*%
%TO.N,Net-(J13-Pin_3)*%
X154305000Y-133350000D03*
%TO.P,J13,2,Pin_2*%
%TO.N,Net-(J10-Pin_2)*%
X154305000Y-135890000D03*
D13*
%TO.P,J13,1,Pin_1*%
%TO.N,Net-(J10-Pin_1)*%
X154305000Y-138430000D03*
%TD*%
D12*
%TO.P,J33,1,Pin_1*%
%TO.N,Net-(J33-Pin_1)*%
X132080000Y-130175000D03*
%TD*%
D14*
%TO.P,J9,3,Pin_3*%
%TO.N,Net-(J50-Pin_1)*%
X144145000Y-133350000D03*
%TO.P,J9,2,Pin_2*%
%TO.N,Net-(J10-Pin_2)*%
X144145000Y-135890000D03*
D13*
%TO.P,J9,1,Pin_1*%
%TO.N,Net-(J10-Pin_1)*%
X144145000Y-138430000D03*
%TD*%
D12*
%TO.P,J46,1,Pin_1*%
%TO.N,Net-(J24-Pin_2)*%
X135890000Y-78740000D03*
%TD*%
D14*
%TO.P,J12,3,Pin_3*%
%TO.N,Net-(J12-Pin_3)*%
X151765000Y-133350000D03*
%TO.P,J12,2,Pin_2*%
%TO.N,Net-(J10-Pin_2)*%
X151765000Y-135890000D03*
D13*
%TO.P,J12,1,Pin_1*%
%TO.N,Net-(J10-Pin_1)*%
X151765000Y-138430000D03*
%TD*%
D12*
%TO.P,J3,1,Pin_1*%
%TO.N,Net-(J3-Pin_1)*%
X134000000Y-126000000D03*
%TD*%
D14*
%TO.P,J23,4,Pin_4*%
%TO.N,/gnd*%
X131445000Y-82300000D03*
%TO.P,J23,3,Pin_3*%
%TO.N,Net-(J23-Pin_3)*%
X128905000Y-82300000D03*
%TO.P,J23,2,Pin_2*%
%TO.N,Net-(J23-Pin_2)*%
X126365000Y-82300000D03*
D13*
%TO.P,J23,1,Pin_1*%
%TO.N,Net-(J23-Pin_1)*%
X123825000Y-82300000D03*
%TD*%
D12*
%TO.P,J48,1,Pin_1*%
%TO.N,Net-(J24-Pin_1)*%
X137795000Y-74295000D03*
%TD*%
D14*
%TO.P,J30,4,Pin_4*%
%TO.N,/gnd*%
X153670000Y-82300000D03*
%TO.P,J30,3,Pin_3*%
%TO.N,Net-(J30-Pin_3)*%
X151130000Y-82300000D03*
%TO.P,J30,2,Pin_2*%
%TO.N,Net-(J30-Pin_2)*%
X148590000Y-82300000D03*
D13*
%TO.P,J30,1,Pin_1*%
%TO.N,Net-(J23-Pin_1)*%
X146050000Y-82300000D03*
%TD*%
D14*
%TO.P,J6,3,Pin_3*%
%TO.N,Net-(J6-Pin_3)*%
X129540000Y-133350000D03*
%TO.P,J6,2,Pin_2*%
%TO.N,Net-(J4-Pin_2)*%
X129540000Y-135890000D03*
D13*
%TO.P,J6,1,Pin_1*%
%TO.N,Net-(J10-Pin_1)*%
X129540000Y-138430000D03*
%TD*%
D12*
%TO.P,J34,1,Pin_1*%
%TO.N,Net-(J34-Pin_1)*%
X148000000Y-126000000D03*
%TD*%
D14*
%TO.P,J22,3,Pin_3*%
%TO.N,Net-(J21-Pin_3)*%
X130810000Y-89535000D03*
%TO.P,J22,2,Pin_2*%
%TO.N,Net-(J21-Pin_2)*%
X128270000Y-89535000D03*
D13*
%TO.P,J22,1,Pin_1*%
%TO.N,/gnd*%
X125730000Y-89535000D03*
%TD*%
D12*
%TO.P,J44,1,Pin_1*%
%TO.N,Net-(J25-Pin_2)*%
X135890000Y-72390000D03*
%TD*%
%TO.P,J38,1,Pin_1*%
%TO.N,Net-(J10-Pin_2)*%
X138430000Y-138430000D03*
%TD*%
%TO.P,J66,1,Pin_1*%
%TO.N,Net-(J10-Pin_2)*%
X138430000Y-135890000D03*
%TD*%
D16*
%TO.N,Net-(J17-Pin_1)*%
X154485000Y-66245000D02*
X154485000Y-61500000D01*
X151130000Y-69600000D02*
X154485000Y-66245000D01*
X154485000Y-61500000D02*
X153310000Y-60325000D01*
D17*
%TO.N,Net-(J17-Pin_2)*%
X145860000Y-69410000D02*
X140761346Y-69410000D01*
X146050000Y-69600000D02*
X145860000Y-69410000D01*
X140761346Y-69410000D02*
X136525000Y-65173654D01*
X153310000Y-62865000D02*
X146575000Y-69600000D01*
X146575000Y-69600000D02*
X146050000Y-69600000D01*
%TO.N,/gnd*%
X153670000Y-69600000D02*
X153670000Y-75950000D01*
D16*
%TO.N,Net-(J31-Pin_3)*%
X151130000Y-75950000D02*
X148340000Y-78740000D01*
X148340000Y-78740000D02*
X140335000Y-78740000D01*
%TO.N,Net-(J31-Pin_2)*%
X140625000Y-77125000D02*
X140335000Y-76835000D01*
X147415000Y-77125000D02*
X140625000Y-77125000D01*
X148590000Y-75950000D02*
X147415000Y-77125000D01*
%TO.N,Net-(J25-Pin_3)*%
X135600000Y-70775000D02*
X135890000Y-70485000D01*
X130080000Y-70775000D02*
X135600000Y-70775000D01*
X128905000Y-69600000D02*
X130080000Y-70775000D01*
%TO.N,Net-(J17-Pin_1)*%
X148340000Y-72390000D02*
X147320000Y-72390000D01*
X151130000Y-69600000D02*
X148340000Y-72390000D01*
X140335000Y-72390000D02*
X147320000Y-72390000D01*
%TO.N,Net-(J18-Pin_2)*%
X148590000Y-69600000D02*
X147165000Y-71025000D01*
X147165000Y-71025000D02*
X146304000Y-71025000D01*
X140875000Y-71025000D02*
X146304000Y-71025000D01*
%TO.N,Net-(J15-Pin_1)*%
X153500000Y-119000000D02*
X155500000Y-119000000D01*
%TO.N,Net-(J17-Pin_1)*%
X153310000Y-60325000D02*
X153670000Y-60325000D01*
%TO.N,Net-(J41-Pin_1)*%
X124500000Y-117000000D02*
X122500000Y-117000000D01*
%TO.N,Net-(J40-Pin_1)*%
X124500000Y-119000000D02*
X122500000Y-119000000D01*
%TO.N,Net-(J1-Pin_1)*%
X128000000Y-122500000D02*
X128000000Y-126000000D01*
%TO.N,Net-(J2-Pin_1)*%
X130000000Y-122500000D02*
X130000000Y-126000000D01*
D17*
%TO.N,Net-(J3-Pin_1)*%
X134000000Y-126000000D02*
X134000000Y-122500000D01*
%TO.N,Net-(J10-Pin_1)*%
X154903654Y-129100000D02*
X155730000Y-129926346D01*
X151765000Y-138430000D02*
X149225000Y-138430000D01*
X124460000Y-138430000D02*
X127000000Y-138430000D01*
X144145000Y-138430000D02*
X140970000Y-138430000D01*
X142000000Y-123430000D02*
X142000000Y-122500000D01*
X149225000Y-138430000D02*
X146685000Y-138430000D01*
X134620000Y-138430000D02*
X132080000Y-138430000D01*
X140970000Y-138430000D02*
X139700000Y-139700000D01*
X132080000Y-138430000D02*
X129540000Y-138430000D01*
X139700000Y-139700000D02*
X135890000Y-139700000D01*
X155730000Y-137005000D02*
X154305000Y-138430000D01*
X144145000Y-138430000D02*
X146685000Y-138430000D01*
X139685000Y-127000000D02*
X141785000Y-129100000D01*
X135890000Y-139700000D02*
X134620000Y-138430000D01*
X154305000Y-138430000D02*
X151765000Y-138430000D01*
X139685000Y-127000000D02*
X139685000Y-125745000D01*
X155730000Y-129926346D02*
X155730000Y-137005000D01*
X127000000Y-138430000D02*
X129540000Y-138430000D01*
X141785000Y-129100000D02*
X154903654Y-129100000D01*
X139685000Y-125745000D02*
X142000000Y-123430000D01*
%TO.N,Net-(J4-Pin_2)*%
X135890000Y-134620000D02*
X138430000Y-134620000D01*
X134620000Y-135890000D02*
X135890000Y-134620000D01*
X124460000Y-135890000D02*
X127000000Y-135890000D01*
X129540000Y-135890000D02*
X127000000Y-135890000D01*
X134620000Y-135890000D02*
X132080000Y-135890000D01*
X132080000Y-135890000D02*
X129540000Y-135890000D01*
D16*
%TO.N,Net-(J4-Pin_3)*%
X124460000Y-130175000D02*
X124460000Y-133350000D01*
%TO.N,Net-(J5-Pin_3)*%
X127000000Y-130175000D02*
X127000000Y-133350000D01*
%TO.N,Net-(J6-Pin_3)*%
X129540000Y-130175000D02*
X129540000Y-133350000D01*
%TO.N,Net-(J33-Pin_1)*%
X132080000Y-130175000D02*
X132080000Y-133350000D01*
%TO.N,Net-(J8-Pin_3)*%
X136000000Y-131970000D02*
X134620000Y-133350000D01*
X136000000Y-131970000D02*
X136000000Y-122500000D01*
D17*
%TO.N,Net-(J10-Pin_2)*%
X140970000Y-134620000D02*
X139700000Y-135890000D01*
X151765000Y-135890000D02*
X154305000Y-135890000D01*
X142240000Y-135890000D02*
X144145000Y-135890000D01*
X144145000Y-135890000D02*
X146685000Y-135890000D01*
X149225000Y-135890000D02*
X151765000Y-135890000D01*
X140970000Y-131000000D02*
X140970000Y-134620000D01*
X146685000Y-135890000D02*
X149225000Y-135890000D01*
X138430000Y-135890000D02*
X138430000Y-138430000D01*
X139700000Y-135890000D02*
X138430000Y-135890000D01*
X140970000Y-134620000D02*
X142240000Y-135890000D01*
D16*
%TO.N,Net-(J50-Pin_1)*%
X144145000Y-130175000D02*
X144145000Y-133350000D01*
%TO.N,Net-(J10-Pin_3)*%
X146685000Y-130175000D02*
X146685000Y-133350000D01*
%TO.N,Net-(J11-Pin_3)*%
X149225000Y-130175000D02*
X149225000Y-133350000D01*
%TO.N,Net-(J12-Pin_3)*%
X151765000Y-130175000D02*
X151765000Y-133350000D01*
%TO.N,Net-(J13-Pin_3)*%
X154305000Y-130175000D02*
X154305000Y-133350000D01*
%TO.N,Net-(J14-Pin_1)*%
X146000000Y-125765000D02*
X144765000Y-127000000D01*
X146000000Y-125765000D02*
X146000000Y-122500000D01*
D17*
%TO.N,Net-(J14-Pin_2)*%
X142225000Y-125745000D02*
X144000000Y-123970000D01*
X144000000Y-123970000D02*
X144000000Y-122500000D01*
X142225000Y-127000000D02*
X142225000Y-125745000D01*
D16*
%TO.N,Net-(J18-Pin_2)*%
X140335000Y-70485000D02*
X140875000Y-71025000D01*
D17*
%TO.N,Net-(J17-Pin_2)*%
X136525000Y-62230000D02*
X136525000Y-65173654D01*
%TO.N,/gnd*%
X125730000Y-89535000D02*
X131445000Y-83820000D01*
X131445000Y-75960000D02*
X131455000Y-75950000D01*
X150000000Y-91950000D02*
X152415000Y-89535000D01*
X128000000Y-93500000D02*
X128000000Y-91805000D01*
X128000000Y-91805000D02*
X125730000Y-89535000D01*
X131435000Y-69590000D02*
X131445000Y-69600000D01*
X131435000Y-62393333D02*
X131435000Y-64933333D01*
X150000000Y-93500000D02*
X150000000Y-91950000D01*
X131445000Y-83820000D02*
X131445000Y-82300000D01*
X153670000Y-76200000D02*
X153670000Y-82300000D01*
X131455000Y-69610000D02*
X131445000Y-69600000D01*
D16*
%TO.N,Net-(J19-Pin_1)*%
X146000000Y-93500000D02*
X146000000Y-90870000D01*
X146000000Y-90870000D02*
X147335000Y-89535000D01*
D17*
%TO.N,Net-(J19-Pin_2)*%
X149875000Y-89535000D02*
X148000000Y-91410000D01*
X148000000Y-93500000D02*
X148000000Y-91410000D01*
%TO.N,Net-(J21-Pin_2)*%
X125240000Y-66358333D02*
X132860000Y-66358333D01*
X130000000Y-93500000D02*
X130000000Y-91265000D01*
X135255000Y-63963333D02*
X135255000Y-62230000D01*
X130000000Y-91265000D02*
X128270000Y-89535000D01*
X132860000Y-66358333D02*
X135255000Y-63963333D01*
X123815000Y-64933333D02*
X125240000Y-66358333D01*
D16*
%TO.N,Net-(J21-Pin_3)*%
X132000000Y-90725000D02*
X130810000Y-89535000D01*
X132000000Y-93500000D02*
X132000000Y-90725000D01*
D17*
%TO.N,Net-(J23-Pin_1)*%
X144395000Y-80645000D02*
X146050000Y-82300000D01*
X137795000Y-80645000D02*
X125480000Y-80645000D01*
X125480000Y-80645000D02*
X123825000Y-82300000D01*
X137795000Y-80645000D02*
X144395000Y-80645000D01*
D16*
%TO.N,Net-(J23-Pin_2)*%
X124500000Y-99000000D02*
X123375000Y-97875000D01*
X123375000Y-85290000D02*
X126365000Y-82300000D01*
X123375000Y-97875000D02*
X123375000Y-85290000D01*
%TO.N,Net-(J23-Pin_3)*%
X123825000Y-96325000D02*
X123825000Y-87380000D01*
X123825000Y-87380000D02*
X128905000Y-82300000D01*
X124500000Y-97000000D02*
X123825000Y-96325000D01*
D17*
%TO.N,Net-(J24-Pin_1)*%
X137795000Y-74295000D02*
X125490000Y-74295000D01*
X125490000Y-74295000D02*
X123835000Y-75950000D01*
X137795000Y-74295000D02*
X144145000Y-74295000D01*
X144145000Y-74295000D02*
X146050000Y-76200000D01*
D16*
%TO.N,Net-(J24-Pin_2)*%
X135890000Y-78740000D02*
X129165000Y-78740000D01*
X129165000Y-78740000D02*
X126375000Y-75950000D01*
%TO.N,Net-(J24-Pin_3)*%
X135600000Y-77125000D02*
X130090000Y-77125000D01*
X130090000Y-77125000D02*
X128915000Y-75950000D01*
X135890000Y-76835000D02*
X135600000Y-77125000D01*
%TO.N,Net-(J25-Pin_2)*%
X129155000Y-72390000D02*
X126365000Y-69600000D01*
X135890000Y-72390000D02*
X129155000Y-72390000D01*
%TO.N,Net-(J26-Pin_2)*%
X128905000Y-59323333D02*
X128905000Y-62383333D01*
X128905000Y-62383333D02*
X128895000Y-62393333D01*
X128895000Y-62393333D02*
X128895000Y-64933333D01*
%TO.N,Net-(J26-Pin_3)*%
X126365000Y-59323333D02*
X126365000Y-62383333D01*
X126355000Y-62393333D02*
X126355000Y-64933333D01*
X126365000Y-62383333D02*
X126355000Y-62393333D01*
%TO.N,Net-(J30-Pin_2)*%
X153270000Y-86980000D02*
X153600000Y-87310000D01*
X148590000Y-82300000D02*
X153270000Y-86980000D01*
X153590000Y-96910000D02*
X153590000Y-87300000D01*
X153590000Y-87300000D02*
X153270000Y-86980000D01*
X153500000Y-97000000D02*
X153590000Y-96910000D01*
%TO.N,Net-(J30-Pin_3)*%
X153500000Y-99000000D02*
X154625000Y-97875000D01*
X154625000Y-85795000D02*
X151130000Y-82300000D01*
X154625000Y-97875000D02*
X154625000Y-85795000D01*
%TO.N,Net-(J34-Pin_1)*%
X148000000Y-126000000D02*
X148000000Y-122500000D01*
%TO.N,Net-(J35-Pin_1)*%
X150000000Y-126000000D02*
X150000000Y-122500000D01*
D17*
%TO.N,Net-(J36-Pin_1)*%
X138430000Y-131000000D02*
X138430000Y-133350000D01*
%TO.N,Net-(J49-Pin_1)*%
X137795000Y-62230000D02*
X137795000Y-64770000D01*
%TD*%
M02*
