%TF.GenerationSoftware,KiCad,Pcbnew,7.0.10*%
%TF.CreationDate,2024-02-19T04:42:38+05:30*%
%TF.ProjectId,breakout,62726561-6b6f-4757-942e-6b696361645f,rev?*%
%TF.SameCoordinates,Original*%
%TF.FileFunction,Soldermask,Top*%
%TF.FilePolarity,Negative*%
%FSLAX46Y46*%
G04 Gerber Fmt 4.6, Leading zero omitted, Abs format (unit mm)*
G04 Created by KiCad (PCBNEW 7.0.10) date 2024-02-19 04:42:38*
%MOMM*%
%LPD*%
G01*
G04 APERTURE LIST*
G04 Aperture macros list*
%AMRoundRect*
0 Rectangle with rounded corners*
0 $1 Rounding radius*
0 $2 $3 $4 $5 $6 $7 $8 $9 X,Y pos of 4 corners*
0 Add a 4 corners polygon primitive as box body*
4,1,4,$2,$3,$4,$5,$6,$7,$8,$9,$2,$3,0*
0 Add four circle primitives for the rounded corners*
1,1,$1+$1,$2,$3*
1,1,$1+$1,$4,$5*
1,1,$1+$1,$6,$7*
1,1,$1+$1,$8,$9*
0 Add four rect primitives between the rounded corners*
20,1,$1+$1,$2,$3,$4,$5,0*
20,1,$1+$1,$4,$5,$6,$7,0*
20,1,$1+$1,$6,$7,$8,$9,0*
20,1,$1+$1,$8,$9,$2,$3,0*%
G04 Aperture macros list end*
%ADD10RoundRect,0.325000X-0.525000X-0.325000X0.525000X-0.325000X0.525000X0.325000X-0.525000X0.325000X0*%
%ADD11RoundRect,0.325000X0.325000X-0.525000X0.325000X0.525000X-0.325000X0.525000X-0.325000X-0.525000X0*%
%ADD12RoundRect,0.275000X-0.275000X-0.275000X0.275000X-0.275000X0.275000X0.275000X-0.275000X0.275000X0*%
%ADD13RoundRect,0.050000X0.850000X-0.850000X0.850000X0.850000X-0.850000X0.850000X-0.850000X-0.850000X0*%
%ADD14O,1.800000X1.800000*%
%ADD15RoundRect,0.275000X-0.275000X0.275000X-0.275000X-0.275000X0.275000X-0.275000X0.275000X0.275000X0*%
%ADD16RoundRect,0.050000X-0.850000X0.850000X-0.850000X-0.850000X0.850000X-0.850000X0.850000X0.850000X0*%
%ADD17RoundRect,0.050000X0.850000X0.850000X-0.850000X0.850000X-0.850000X-0.850000X0.850000X-0.850000X0*%
G04 APERTURE END LIST*
D10*
%TO.C,U1*%
X153500000Y-115000000D03*
D11*
X132000000Y-122500000D03*
D10*
X153500000Y-97000000D03*
X153500000Y-99000000D03*
X153500000Y-117000000D03*
X153500000Y-119000000D03*
D11*
X150000000Y-122500000D03*
X148000000Y-122500000D03*
X146000000Y-122500000D03*
X144000000Y-122500000D03*
X142000000Y-122500000D03*
X136000000Y-122500000D03*
X134000000Y-122500000D03*
X130000000Y-122500000D03*
X128000000Y-122500000D03*
D10*
X124500000Y-119000000D03*
X124500000Y-117000000D03*
X124500000Y-99000000D03*
X124500000Y-97000000D03*
D11*
X128000000Y-93500000D03*
X130000000Y-93500000D03*
X132000000Y-93500000D03*
X146000000Y-93500000D03*
X148000000Y-93500000D03*
X150000000Y-93500000D03*
%TD*%
D12*
%TO.C,J49*%
X137795000Y-64770000D03*
%TD*%
%TO.C,J42*%
X135255000Y-62230000D03*
%TD*%
%TO.C,J67*%
X136525000Y-62230000D03*
%TD*%
%TO.C,J68*%
X137795000Y-62230000D03*
%TD*%
D13*
%TO.C,J17*%
X153310000Y-60325000D03*
D14*
X153310000Y-62865000D03*
%TD*%
D13*
%TO.C,J18*%
X146050000Y-60325000D03*
D14*
X146050000Y-62865000D03*
%TD*%
D15*
%TO.C,J59*%
X126365000Y-59323333D03*
%TD*%
D16*
%TO.C,J27*%
X131435000Y-64933333D03*
D14*
X128895000Y-64933333D03*
X126355000Y-64933333D03*
X123815000Y-64933333D03*
%TD*%
D15*
%TO.C,J58*%
X128905000Y-59323333D03*
%TD*%
D16*
%TO.C,J26*%
X131435000Y-62393333D03*
D14*
X128895000Y-62393333D03*
X126355000Y-62393333D03*
X123815000Y-62393333D03*
%TD*%
D12*
%TO.C,J64*%
X124460000Y-130175000D03*
%TD*%
%TO.C,J39*%
X140970000Y-138430000D03*
%TD*%
D13*
%TO.C,J32*%
X146050000Y-69600000D03*
D14*
X148590000Y-69600000D03*
X151130000Y-69600000D03*
X153670000Y-69600000D03*
%TD*%
D12*
%TO.C,J40*%
X122500000Y-119000000D03*
%TD*%
%TO.C,J16*%
X155500000Y-115000000D03*
%TD*%
D14*
%TO.C,J20*%
X152415000Y-89535000D03*
X149875000Y-89535000D03*
D13*
X147335000Y-89535000D03*
%TD*%
D14*
%TO.C,J8*%
X134620000Y-133350000D03*
X134620000Y-135890000D03*
D17*
X134620000Y-138430000D03*
%TD*%
D12*
%TO.C,J15*%
X155500000Y-119000000D03*
%TD*%
D14*
%TO.C,J5*%
X127000000Y-133350000D03*
X127000000Y-135890000D03*
D17*
X127000000Y-138430000D03*
%TD*%
D12*
%TO.C,J60*%
X151765000Y-130175000D03*
%TD*%
D14*
%TO.C,J10*%
X146685000Y-133350000D03*
X146685000Y-135890000D03*
D17*
X146685000Y-138430000D03*
%TD*%
D12*
%TO.C,J54*%
X140335000Y-72390000D03*
%TD*%
D14*
%TO.C,J4*%
X124460000Y-133350000D03*
X124460000Y-135890000D03*
D17*
X124460000Y-138430000D03*
%TD*%
D12*
%TO.C,J35*%
X150000000Y-126000000D03*
%TD*%
%TO.C,J1*%
X128000000Y-126000000D03*
%TD*%
%TO.C,J43*%
X138430000Y-133350000D03*
%TD*%
%TO.C,J53*%
X140335000Y-70485000D03*
%TD*%
%TO.C,J50*%
X144145000Y-130175000D03*
%TD*%
D14*
%TO.C,J7*%
X132080000Y-133350000D03*
X132080000Y-135890000D03*
D17*
X132080000Y-138430000D03*
%TD*%
D12*
%TO.C,J37*%
X140970000Y-131000000D03*
%TD*%
%TO.C,J63*%
X127000000Y-130175000D03*
%TD*%
%TO.C,J52*%
X149225000Y-130175000D03*
%TD*%
%TO.C,J47*%
X135890000Y-76835000D03*
%TD*%
D14*
%TO.C,J31*%
X153670000Y-75950000D03*
X151130000Y-75950000D03*
X148590000Y-75950000D03*
D13*
X146050000Y-75950000D03*
%TD*%
D12*
%TO.C,J57*%
X137795000Y-80645000D03*
%TD*%
%TO.C,J62*%
X129540000Y-130175000D03*
%TD*%
D14*
%TO.C,J14*%
X139685000Y-127000000D03*
X142225000Y-127000000D03*
D16*
X144765000Y-127000000D03*
%TD*%
D12*
%TO.C,J65*%
X138430000Y-134620000D03*
%TD*%
%TO.C,J55*%
X140335000Y-76835000D03*
%TD*%
%TO.C,J51*%
X146685000Y-130175000D03*
%TD*%
%TO.C,J45*%
X135890000Y-70485000D03*
%TD*%
D14*
%TO.C,J24*%
X131455000Y-75950000D03*
X128915000Y-75950000D03*
X126375000Y-75950000D03*
D13*
X123835000Y-75950000D03*
%TD*%
D12*
%TO.C,J61*%
X154305000Y-130175000D03*
%TD*%
D14*
%TO.C,J11*%
X149225000Y-133350000D03*
X149225000Y-135890000D03*
D17*
X149225000Y-138430000D03*
%TD*%
D12*
%TO.C,J41*%
X122500000Y-117000000D03*
%TD*%
%TO.C,J36*%
X138430000Y-131000000D03*
%TD*%
D14*
%TO.C,J25*%
X131445000Y-69600000D03*
X128905000Y-69600000D03*
X126365000Y-69600000D03*
D13*
X123825000Y-69600000D03*
%TD*%
D12*
%TO.C,J2*%
X130000000Y-126000000D03*
%TD*%
%TO.C,J56*%
X140335000Y-78740000D03*
%TD*%
D14*
%TO.C,J13*%
X154305000Y-133350000D03*
X154305000Y-135890000D03*
D17*
X154305000Y-138430000D03*
%TD*%
D12*
%TO.C,J33*%
X132080000Y-130175000D03*
%TD*%
D14*
%TO.C,J9*%
X144145000Y-133350000D03*
X144145000Y-135890000D03*
D17*
X144145000Y-138430000D03*
%TD*%
D12*
%TO.C,J46*%
X135890000Y-78740000D03*
%TD*%
D14*
%TO.C,J12*%
X151765000Y-133350000D03*
X151765000Y-135890000D03*
D17*
X151765000Y-138430000D03*
%TD*%
D12*
%TO.C,J3*%
X134000000Y-126000000D03*
%TD*%
D14*
%TO.C,J23*%
X131445000Y-82300000D03*
X128905000Y-82300000D03*
X126365000Y-82300000D03*
D13*
X123825000Y-82300000D03*
%TD*%
D12*
%TO.C,J48*%
X137795000Y-74295000D03*
%TD*%
D14*
%TO.C,J30*%
X153670000Y-82300000D03*
X151130000Y-82300000D03*
X148590000Y-82300000D03*
D13*
X146050000Y-82300000D03*
%TD*%
D14*
%TO.C,J6*%
X129540000Y-133350000D03*
X129540000Y-135890000D03*
D17*
X129540000Y-138430000D03*
%TD*%
D12*
%TO.C,J34*%
X148000000Y-126000000D03*
%TD*%
D14*
%TO.C,J22*%
X130810000Y-89535000D03*
X128270000Y-89535000D03*
D13*
X125730000Y-89535000D03*
%TD*%
D12*
%TO.C,J44*%
X135890000Y-72390000D03*
%TD*%
%TO.C,J38*%
X138430000Y-138430000D03*
%TD*%
%TO.C,J66*%
X138430000Y-135890000D03*
%TD*%
M02*
