M48
; DRILL file {KiCad 7.0.10} date Mon Feb 19 04:42:47 2024
; FORMAT={-:-/ absolute / inch / decimal}
; #@! TF.CreationDate,2024-02-19T04:42:47+05:30
; #@! TF.GenerationSoftware,Kicad,Pcbnew,7.0.10
; #@! TF.FileFunction,Plated,1,2,PTH
FMAT,2
INCH
; #@! TA.AperFunction,Plated,PTH,ComponentDrill
T1C0.0394
%
G90
G05
T1
X4.8746Y-2.4564
X4.8746Y-2.5564
X4.875Y-2.7402
X4.875Y-3.2402
X4.8754Y-2.9902
X4.9Y-5.25
X4.9Y-5.35
X4.9Y-5.45
X4.95Y-3.525
X4.9746Y-2.4564
X4.9746Y-2.5564
X4.975Y-2.7402
X4.975Y-3.2402
X4.9754Y-2.9902
X5.0Y-5.25
X5.0Y-5.35
X5.0Y-5.45
X5.05Y-3.525
X5.0746Y-2.4564
X5.0746Y-2.5564
X5.075Y-2.7402
X5.075Y-3.2402
X5.0754Y-2.9902
X5.1Y-5.25
X5.1Y-5.35
X5.1Y-5.45
X5.15Y-3.525
X5.1746Y-2.4564
X5.1746Y-2.5564
X5.175Y-2.7402
X5.175Y-3.2402
X5.1754Y-2.9902
X5.2Y-5.25
X5.2Y-5.35
X5.2Y-5.45
X5.3Y-5.25
X5.3Y-5.35
X5.3Y-5.45
X5.4994Y-5.0
X5.5994Y-5.0
X5.675Y-5.25
X5.675Y-5.35
X5.675Y-5.45
X5.6994Y-5.0
X5.75Y-2.375
X5.75Y-2.475
X5.75Y-2.7402
X5.75Y-2.9902
X5.75Y-3.2402
X5.775Y-5.25
X5.775Y-5.35
X5.775Y-5.45
X5.8006Y-3.525
X5.85Y-2.7402
X5.85Y-2.9902
X5.85Y-3.2402
X5.875Y-5.25
X5.875Y-5.35
X5.875Y-5.45
X5.9006Y-3.525
X5.95Y-2.7402
X5.95Y-2.9902
X5.95Y-3.2402
X5.975Y-5.25
X5.975Y-5.35
X5.975Y-5.45
X6.0006Y-3.525
X6.0358Y-2.375
X6.0358Y-2.475
X6.05Y-2.7402
X6.05Y-2.9902
X6.05Y-3.2402
X6.075Y-5.25
X6.075Y-5.35
X6.075Y-5.45
M30
