%TF.GenerationSoftware,KiCad,Pcbnew,7.0.10*%
%TF.CreationDate,2024-02-19T04:42:38+05:30*%
%TF.ProjectId,breakout,62726561-6b6f-4757-942e-6b696361645f,rev?*%
%TF.SameCoordinates,Original*%
%TF.FileFunction,Soldermask,Bot*%
%TF.FilePolarity,Negative*%
%FSLAX46Y46*%
G04 Gerber Fmt 4.6, Leading zero omitted, Abs format (unit mm)*
G04 Created by KiCad (PCBNEW 7.0.10) date 2024-02-19 04:42:38*
%MOMM*%
%LPD*%
G01*
G04 APERTURE LIST*
G04 Aperture macros list*
%AMRoundRect*
0 Rectangle with rounded corners*
0 $1 Rounding radius*
0 $2 $3 $4 $5 $6 $7 $8 $9 X,Y pos of 4 corners*
0 Add a 4 corners polygon primitive as box body*
4,1,4,$2,$3,$4,$5,$6,$7,$8,$9,$2,$3,0*
0 Add four circle primitives for the rounded corners*
1,1,$1+$1,$2,$3*
1,1,$1+$1,$4,$5*
1,1,$1+$1,$6,$7*
1,1,$1+$1,$8,$9*
0 Add four rect primitives between the rounded corners*
20,1,$1+$1,$2,$3,$4,$5,0*
20,1,$1+$1,$4,$5,$6,$7,0*
20,1,$1+$1,$6,$7,$8,$9,0*
20,1,$1+$1,$8,$9,$2,$3,0*%
G04 Aperture macros list end*
%ADD10RoundRect,0.050000X0.850000X-0.850000X0.850000X0.850000X-0.850000X0.850000X-0.850000X-0.850000X0*%
%ADD11O,1.800000X1.800000*%
%ADD12RoundRect,0.050000X-0.850000X0.850000X-0.850000X-0.850000X0.850000X-0.850000X0.850000X0.850000X0*%
%ADD13RoundRect,0.050000X0.850000X0.850000X-0.850000X0.850000X-0.850000X-0.850000X0.850000X-0.850000X0*%
G04 APERTURE END LIST*
D10*
%TO.C,J17*%
X153310000Y-60325000D03*
D11*
X153310000Y-62865000D03*
%TD*%
D10*
%TO.C,J18*%
X146050000Y-60325000D03*
D11*
X146050000Y-62865000D03*
%TD*%
D12*
%TO.C,J27*%
X131435000Y-64933333D03*
D11*
X128895000Y-64933333D03*
X126355000Y-64933333D03*
X123815000Y-64933333D03*
%TD*%
D12*
%TO.C,J26*%
X131435000Y-62393333D03*
D11*
X128895000Y-62393333D03*
X126355000Y-62393333D03*
X123815000Y-62393333D03*
%TD*%
D10*
%TO.C,J32*%
X146050000Y-69600000D03*
D11*
X148590000Y-69600000D03*
X151130000Y-69600000D03*
X153670000Y-69600000D03*
%TD*%
%TO.C,J20*%
X152415000Y-89535000D03*
X149875000Y-89535000D03*
D10*
X147335000Y-89535000D03*
%TD*%
D11*
%TO.C,J8*%
X134620000Y-133350000D03*
X134620000Y-135890000D03*
D13*
X134620000Y-138430000D03*
%TD*%
D11*
%TO.C,J5*%
X127000000Y-133350000D03*
X127000000Y-135890000D03*
D13*
X127000000Y-138430000D03*
%TD*%
D11*
%TO.C,J10*%
X146685000Y-133350000D03*
X146685000Y-135890000D03*
D13*
X146685000Y-138430000D03*
%TD*%
D11*
%TO.C,J4*%
X124460000Y-133350000D03*
X124460000Y-135890000D03*
D13*
X124460000Y-138430000D03*
%TD*%
D11*
%TO.C,J7*%
X132080000Y-133350000D03*
X132080000Y-135890000D03*
D13*
X132080000Y-138430000D03*
%TD*%
D11*
%TO.C,J31*%
X153670000Y-75950000D03*
X151130000Y-75950000D03*
X148590000Y-75950000D03*
D10*
X146050000Y-75950000D03*
%TD*%
D11*
%TO.C,J14*%
X139685000Y-127000000D03*
X142225000Y-127000000D03*
D12*
X144765000Y-127000000D03*
%TD*%
D11*
%TO.C,J24*%
X131455000Y-75950000D03*
X128915000Y-75950000D03*
X126375000Y-75950000D03*
D10*
X123835000Y-75950000D03*
%TD*%
D11*
%TO.C,J11*%
X149225000Y-133350000D03*
X149225000Y-135890000D03*
D13*
X149225000Y-138430000D03*
%TD*%
D11*
%TO.C,J25*%
X131445000Y-69600000D03*
X128905000Y-69600000D03*
X126365000Y-69600000D03*
D10*
X123825000Y-69600000D03*
%TD*%
D11*
%TO.C,J13*%
X154305000Y-133350000D03*
X154305000Y-135890000D03*
D13*
X154305000Y-138430000D03*
%TD*%
D11*
%TO.C,J9*%
X144145000Y-133350000D03*
X144145000Y-135890000D03*
D13*
X144145000Y-138430000D03*
%TD*%
D11*
%TO.C,J12*%
X151765000Y-133350000D03*
X151765000Y-135890000D03*
D13*
X151765000Y-138430000D03*
%TD*%
D11*
%TO.C,J23*%
X131445000Y-82300000D03*
X128905000Y-82300000D03*
X126365000Y-82300000D03*
D10*
X123825000Y-82300000D03*
%TD*%
D11*
%TO.C,J30*%
X153670000Y-82300000D03*
X151130000Y-82300000D03*
X148590000Y-82300000D03*
D10*
X146050000Y-82300000D03*
%TD*%
D11*
%TO.C,J6*%
X129540000Y-133350000D03*
X129540000Y-135890000D03*
D13*
X129540000Y-138430000D03*
%TD*%
D11*
%TO.C,J22*%
X130810000Y-89535000D03*
X128270000Y-89535000D03*
D10*
X125730000Y-89535000D03*
%TD*%
M02*
