%TF.GenerationSoftware,KiCad,Pcbnew,7.0.10*%
%TF.CreationDate,2024-02-19T04:42:38+05:30*%
%TF.ProjectId,breakout,62726561-6b6f-4757-942e-6b696361645f,rev?*%
%TF.SameCoordinates,Original*%
%TF.FileFunction,Profile,NP*%
%FSLAX46Y46*%
G04 Gerber Fmt 4.6, Leading zero omitted, Abs format (unit mm)*
G04 Created by KiCad (PCBNEW 7.0.10) date 2024-02-19 04:42:38*
%MOMM*%
%LPD*%
G01*
G04 APERTURE LIST*
%TA.AperFunction,Profile*%
%ADD10C,0.100000*%
%TD*%
G04 APERTURE END LIST*
D10*
X159000000Y-132000000D02*
G75*
G03*
X159000000Y-124000000I0J4000000D01*
G01*
X159000000Y-92000000D02*
G75*
G03*
X159000000Y-84000000I0J4000000D01*
G01*
X119000000Y-84000000D02*
G75*
G03*
X119000000Y-92000000I0J-4000000D01*
G01*
X119000000Y-124000000D02*
G75*
G03*
X119000000Y-132000000I0J-4000000D01*
G01*
X119000000Y-140000000D02*
G75*
G03*
X122000000Y-143000000I3000001J1D01*
G01*
X122000000Y-56000000D02*
G75*
G03*
X119000000Y-59000000I1J-3000001D01*
G01*
X159000000Y-59000000D02*
G75*
G03*
X156000000Y-56000000I-3000001J-1D01*
G01*
X156000000Y-143000000D02*
G75*
G03*
X159000000Y-140000000I0J3000000D01*
G01*
X159000000Y-132000000D02*
X159000000Y-140000000D01*
X122000000Y-143000000D02*
X156000000Y-143000000D01*
X119000000Y-132000000D02*
X119000000Y-140000000D01*
X119000000Y-92000000D02*
X119000000Y-124000000D01*
X119000000Y-59000000D02*
X119000000Y-84000000D01*
X156000000Y-56000000D02*
X122000000Y-56000000D01*
X159000000Y-84000000D02*
X159000000Y-59000000D01*
X159000000Y-124000000D02*
X159000000Y-92000000D01*
X121000000Y-88000000D02*
G75*
G03*
X117000000Y-88000000I-2000000J0D01*
G01*
X117000000Y-88000000D02*
G75*
G03*
X121000000Y-88000000I2000000J0D01*
G01*
X121000000Y-128000000D02*
G75*
G03*
X117000000Y-128000000I-2000000J0D01*
G01*
X117000000Y-128000000D02*
G75*
G03*
X121000000Y-128000000I2000000J0D01*
G01*
X161000000Y-88000000D02*
G75*
G03*
X157000000Y-88000000I-2000000J0D01*
G01*
X157000000Y-88000000D02*
G75*
G03*
X161000000Y-88000000I2000000J0D01*
G01*
X161000000Y-128000000D02*
G75*
G03*
X157000000Y-128000000I-2000000J0D01*
G01*
X157000000Y-128000000D02*
G75*
G03*
X161000000Y-128000000I2000000J0D01*
G01*
X129500000Y-121500000D02*
X125500000Y-117500000D01*
X141500000Y-91500000D02*
G75*
G03*
X141500000Y-88500000I0J1500000D01*
G01*
X148500000Y-121500000D02*
X129500000Y-121500000D01*
X125500000Y-98500000D02*
X129500000Y-94500000D01*
X136500000Y-88500000D02*
X141500000Y-88500000D01*
X141500000Y-91500000D02*
X136500000Y-91500000D01*
X152500000Y-98500000D02*
X148500000Y-94500000D01*
X125500000Y-117500000D02*
X125500000Y-98500000D01*
X148500000Y-94500000D02*
X129500000Y-94500000D01*
X136500000Y-88500000D02*
G75*
G03*
X136500000Y-91500000I0J-1500000D01*
G01*
X148500000Y-121500000D02*
X152500000Y-117500000D01*
X152500000Y-117500000D02*
X152500000Y-98500000D01*
M02*
